<svg width="60" height="50" viewBox="0 0 60 50" fill="none" xmlns="http://www.w3.org/2000/svg">
<g clip-path="url(#clip0_18_173)">
<path d="M19.5002 34.375C19.2761 34.375 19.052 34.4092 18.8383 34.4814C17.6233 34.8926 16.3455 35.1562 15.0002 35.1562C13.6548 35.1562 12.377 34.8926 11.1611 34.4814C10.9473 34.4092 10.7242 34.375 10.5002 34.375C4.68203 34.375 -0.0307861 39.3047 0.000151451 45.373C0.0132765 47.9375 2.03734 50 4.50015 50H25.5002C27.963 50 29.987 47.9375 30.0002 45.373C30.0311 39.3047 25.3183 34.375 19.5002 34.375ZM15.0002 31.25C19.9708 31.25 24.0002 27.0527 24.0002 21.875C24.0002 16.6973 19.9708 12.5 15.0002 12.5C10.0295 12.5 6.00015 16.6973 6.00015 21.875C6.00015 27.0527 10.0295 31.25 15.0002 31.25ZM55.5001 0H19.5002C17.0186 0 15.0002 2.17285 15.0002 4.84277V9.375C17.1958 9.375 19.2283 10.0371 21.0002 11.1133V6.25H54.0001V34.375H48.0001V28.125H36.0002V34.375H28.8527C30.6433 36.0049 31.9577 38.1572 32.5736 40.625H55.5001C57.9817 40.625 60.0001 38.4521 60.0001 35.7822V4.84277C60.0001 2.17285 57.9817 0 55.5001 0Z" fill="white"/>
</g>
<defs>
<clipPath id="clip0_18_173">
<rect width="60" height="50" fill="white"/>
</clipPath>
</defs>
</svg>
