<svg width="50" height="50" viewBox="0 0 50 50" fill="none" xmlns="http://www.w3.org/2000/svg">
<path d="M38.1901 34.005C34.6598 31.4395 29.9787 30.0264 25.0101 30.0264C20.0414 30.0264 15.3604 31.4395 11.8302 34.005C8.22885 36.6219 6.24707 40.1233 6.24707 43.867C6.24707 44.9827 6.86858 45.9774 8.09744 46.8215C9.11319 47.5225 10.5622 48.1245 12.3984 48.6163C15.7333 49.5082 20.2119 50 25.0065 50C29.8012 50 34.2797 49.5082 37.6147 48.6163C39.4508 48.1245 40.8999 47.5225 41.9157 46.8215C43.1445 45.9774 43.766 44.9827 43.766 43.867C43.7731 40.1233 41.7914 36.6219 38.1901 34.005ZM37.2844 47.284C34.056 48.1465 29.6946 48.6236 25.0065 48.6236C20.3184 48.6236 15.9607 48.1465 12.7287 47.284C9.45061 46.4068 7.57181 45.1589 7.57181 43.8633C7.57181 36.9926 15.3924 31.3991 25.0065 31.3991C34.6207 31.3991 42.4413 36.9889 42.4413 43.8633C42.4413 45.1626 40.5625 46.4068 37.2844 47.284Z" fill="#808080"/>
<path d="M42.4413 43.8633C42.4413 45.1589 40.5625 46.4068 37.2844 47.284C34.056 48.1465 29.6946 48.6236 25.0065 48.6236C20.3184 48.6236 15.9606 48.1465 12.7287 47.284C9.45058 46.4068 7.57178 45.1589 7.57178 43.8633C7.57178 36.9926 15.3923 31.3991 25.0065 31.3991C34.6206 31.3991 42.4413 36.9926 42.4413 43.8633Z" fill="white"/>
<path d="M25.0097 0C18.1551 0 12.5791 5.76232 12.5791 12.8459C12.5791 19.9295 18.1551 25.6882 25.0097 25.6882C31.8642 25.6882 37.4402 19.9259 37.4402 12.8459C37.4367 5.75864 31.8607 0 25.0097 0ZM25.0097 24.3118C18.8903 24.3118 13.9109 19.1661 13.9109 12.8423C13.9109 6.51839 18.8903 1.37268 25.0097 1.37268C31.1291 1.37268 36.1084 6.51839 36.1084 12.8423C36.1048 19.1661 31.1291 24.3118 25.0097 24.3118Z" fill="#808080"/>
<path d="M36.1056 12.8423C36.1056 19.1661 31.1263 24.3118 25.0069 24.3118C18.8875 24.3118 13.9082 19.1661 13.9082 12.8423C13.9082 6.51839 18.8875 1.37268 25.0069 1.37268C31.1263 1.37268 36.1056 6.51839 36.1056 12.8423Z" fill="white"/>
<g opacity="0.9">
<g opacity="0.9">
<g opacity="0.9">
<path opacity="0.9" d="M44.9746 43.177C44.6763 43.177 44.4064 42.9714 44.3318 42.6595C44.2395 42.2924 44.4561 41.9181 44.8112 41.8226C47.2263 41.184 48.6683 40.2628 48.6683 39.3636C48.6683 34.2215 42.7833 30.0374 35.5523 30.0374C34.4513 30.0374 33.3574 30.1365 32.299 30.3274C31.9367 30.3935 31.5923 30.1439 31.5283 29.7695C31.4644 29.3951 31.7059 29.0391 32.0682 28.9731C33.2011 28.7675 34.3732 28.6611 35.5523 28.6611C39.3703 28.6611 42.9644 29.7475 45.6814 31.7184C48.4658 33.7407 50.0001 36.4567 50.0001 39.3599C50.0001 41.0225 48.3664 42.2961 45.1416 43.1513C45.0848 43.1696 45.0279 43.177 44.9746 43.177Z" fill="#808080"/>
</g>
<g opacity="0.9">
<path opacity="0.9" d="M35.5515 25.6845C34.5322 25.6845 33.527 25.5194 32.561 25.1964C32.2129 25.0789 32.0212 24.6899 32.1348 24.3302C32.2485 23.9705 32.625 23.7723 32.973 23.8897C33.8041 24.1687 34.6707 24.3118 35.5479 24.3118C40.1188 24.3118 43.8408 20.4691 43.8408 15.7418C43.8408 11.6898 41.0564 8.15901 37.2207 7.34788C36.862 7.27081 36.6276 6.90747 36.7022 6.53677C36.7768 6.16607 37.1284 5.9238 37.4871 6.00088C39.6287 6.45232 41.5749 7.6672 42.9743 9.41792C44.3913 11.1943 45.1727 13.4405 45.1727 15.7454C45.1727 21.2252 40.8575 25.6845 35.5515 25.6845Z" fill="#808080"/>
</g>
</g>
<g opacity="0.9">
<g opacity="0.9">
<path opacity="0.9" d="M5.02547 43.177C4.97219 43.177 4.91538 43.1696 4.85855 43.1549C1.63371 42.3034 0 41.0262 0 39.3636C0 36.4604 1.53426 33.7444 4.3187 31.7221C7.03212 29.7512 10.6299 28.6647 14.4478 28.6647C15.627 28.6647 16.799 28.7712 17.932 28.9767C18.2942 29.0428 18.5358 29.3988 18.4718 29.7732C18.4079 30.1475 18.0634 30.3971 17.7012 30.331C16.6428 30.1365 15.5488 30.0411 14.4478 30.0411C7.21681 30.0411 1.33185 34.2252 1.33185 39.3672C1.33185 40.2665 2.77383 41.1877 5.18891 41.8263C5.54407 41.9217 5.76067 42.2961 5.66832 42.6631C5.59374 42.9714 5.3238 43.177 5.02547 43.177Z" fill="#808080"/>
</g>
<g opacity="0.9">
<path opacity="0.9" d="M14.4474 25.6845C9.1413 25.6845 4.82617 21.2252 4.82617 15.7418C4.82617 13.4369 5.6075 11.1907 7.02459 9.41425C8.42391 7.66354 10.3702 6.44866 12.5118 5.99722C12.8705 5.92014 13.2221 6.16241 13.2967 6.53311C13.3712 6.9038 13.1369 7.26714 12.7781 7.34422C8.94243 8.15535 6.15802 11.6861 6.15802 15.7381C6.15802 20.4617 9.87648 24.3082 14.4509 24.3082C15.3317 24.3082 16.1983 24.165 17.0258 23.8861C17.3739 23.7686 17.7504 23.9669 17.864 24.3265C17.9777 24.6862 17.7859 25.0753 17.4379 25.1927C16.4718 25.523 15.4667 25.6845 14.4474 25.6845Z" fill="#808080"/>
</g>
</g>
</g>
</svg>
