<svg width="50" height="50" viewBox="0 0 50 50" fill="none" xmlns="http://www.w3.org/2000/svg">
<path d="M22.713 5.40404C22.5251 2.78099 20.1456 0.401852 17.5142 0.21392C13.4911 -0.049985 9.41603 -0.049985 5.38891 0.21392C2.76548 0.405851 0.385915 2.78099 0.197957 5.41205C-0.0659856 9.4346 -0.0659856 13.5091 0.197957 17.5357C0.389915 20.1587 2.76539 22.5378 5.39682 22.7258C7.40838 22.8577 9.43199 22.9217 11.4556 22.9217C13.4791 22.9217 15.5066 22.8577 17.5142 22.7258H17.5182C20.1416 22.5378 22.5211 20.1587 22.713 17.5277C22.977 13.5051 22.977 9.42659 22.713 5.40404ZM21.2174 17.4237C21.0814 19.315 19.3058 21.0904 17.4142 21.2303C13.4591 21.4862 9.44793 21.4862 5.4968 21.2303C3.60521 21.0944 1.82569 19.315 1.68972 17.4317C1.43378 13.4771 1.43378 9.46259 1.68972 5.51201C1.82569 3.62069 3.6053 1.84133 5.48889 1.70537C7.46845 1.57742 9.45998 1.51345 11.4515 1.51345C13.4431 1.51345 15.4306 1.57742 17.4062 1.70537C19.2978 1.84133 21.0774 3.62068 21.2134 5.50401C21.4773 9.46258 21.4773 13.4731 21.2174 17.4237Z" fill="white"/>
<path d="M21.2172 17.4237C21.0812 19.315 19.3056 21.0903 17.414 21.2303C13.4589 21.4862 9.44773 21.4862 5.49659 21.2303C3.60501 21.0943 1.82549 19.315 1.68952 17.4317C1.43357 13.4771 1.43357 9.46256 1.68952 5.51199C1.82549 3.62067 3.6051 1.8413 5.48868 1.70535C7.46825 1.5774 9.45978 1.51343 11.4513 1.51343C13.4429 1.51343 15.4304 1.5774 17.406 1.70535C19.2976 1.8413 21.0772 3.62066 21.2132 5.50398C21.4771 9.46256 21.4771 13.4731 21.2172 17.4237Z" fill="white"/>
<path d="M49.8028 5.39205C49.6109 2.765 47.2354 0.389859 44.604 0.197929C40.5808 -0.0659762 36.5058 -0.0659762 32.4787 0.197929C29.8553 0.385861 27.4758 2.765 27.2838 5.39606C27.0239 9.41461 27.0239 13.4931 27.2838 17.5197C27.4718 20.1467 29.8513 22.5219 32.4827 22.7138C34.4942 22.8458 36.5178 22.9098 38.5413 22.9098C40.5649 22.9098 42.5884 22.8458 44.6 22.7138H44.604C47.2274 22.5259 49.6069 20.1468 49.7948 17.5157C50.0668 13.4972 50.0668 9.4186 49.8028 5.39205ZM48.3071 17.4157C48.1712 19.3071 46.3916 21.0824 44.504 21.2223C40.5488 21.4782 36.5378 21.4782 32.5867 21.2223C30.6951 21.0864 28.9155 19.307 28.7795 17.4237C28.5235 13.4691 28.5235 9.4546 28.7795 5.50402C28.9155 3.61271 30.6951 1.83334 32.5787 1.69739C34.5582 1.56943 36.5498 1.50547 38.5413 1.50547C40.5329 1.50547 42.5204 1.56943 44.496 1.69739C46.3876 1.83334 48.1672 3.6127 48.3031 5.49602C48.5631 9.45059 48.5631 13.4652 48.3071 17.4157Z" fill="white"/>
<path d="M48.307 17.4158C48.171 19.3071 46.3914 21.0824 44.5038 21.2224C40.5487 21.4783 36.5377 21.4783 32.5865 21.2224C30.6949 21.0864 28.9153 19.3071 28.7794 17.4237C28.5234 13.4692 28.5234 9.45463 28.7794 5.50405C28.9153 3.61273 30.6949 1.83337 32.5785 1.69742C34.5581 1.56946 36.5496 1.50549 38.5412 1.50549C40.5328 1.50549 42.5203 1.56946 44.4958 1.69742C46.3874 1.83337 48.167 3.61273 48.303 5.49605C48.563 9.45062 48.563 13.4652 48.307 17.4158Z" fill="white"/>
<path d="M22.713 32.4743C22.5251 29.8472 20.1456 27.4721 17.5142 27.2802C13.4911 27.0163 9.41603 27.0163 5.38891 27.2802C2.76548 27.4681 0.385915 29.8472 0.197957 32.4783C-0.0659856 36.4969 -0.0659856 40.5754 0.197957 44.602C0.389915 47.229 2.76539 49.6042 5.39682 49.7961C7.40838 49.928 9.43199 49.992 11.4556 49.992C13.4791 49.992 15.5066 49.928 17.5142 49.7961H17.5182C20.1416 49.6082 22.5211 47.229 22.713 44.598C22.977 40.5794 22.977 36.5008 22.713 32.4743ZM21.2174 44.494C21.0814 46.3853 19.3058 48.1607 17.4142 48.3006C13.4591 48.5565 9.44793 48.5565 5.4968 48.3006C3.60521 48.1647 1.82569 46.3853 1.68972 44.502C1.43378 40.5474 1.43378 36.5328 1.68972 32.5823C1.82569 30.6909 3.6053 28.9116 5.48889 28.7756C7.46845 28.6477 9.45998 28.5837 11.4515 28.5837C13.4431 28.5837 15.4306 28.6477 17.4062 28.7756C19.2978 28.9116 21.0774 30.6909 21.2134 32.5743C21.4773 36.5328 21.4773 40.5474 21.2174 44.494Z" fill="white"/>
<path d="M21.2172 44.494C21.0812 46.3853 19.3056 48.1607 17.414 48.3006C13.4589 48.5565 9.44773 48.5565 5.49659 48.3006C3.60501 48.1647 1.82549 46.3853 1.68952 44.502C1.43357 40.5474 1.43357 36.5328 1.68952 32.5823C1.82549 30.691 3.6051 28.9116 5.48868 28.7756C7.46825 28.6477 9.45978 28.5837 11.4513 28.5837C13.4429 28.5837 15.4304 28.6477 17.406 28.7756C19.2976 28.9116 21.0772 30.6909 21.2132 32.5743C21.4771 36.5328 21.4771 40.5474 21.2172 44.494Z" fill="white"/>
<path d="M49.8028 32.4823C49.6109 29.8592 47.2354 27.4801 44.604 27.2922C40.5808 27.0283 36.5058 27.0283 32.4787 27.2922C29.8553 27.4801 27.4758 29.8592 27.2838 32.4903C27.0239 36.5128 27.0239 40.5874 27.2838 44.6139C27.4718 47.237 29.8513 49.6161 32.4827 49.8041C34.4942 49.936 36.5178 50 38.5413 50C40.5649 50 42.5884 49.932 44.6 49.8041H44.604C47.2274 49.6161 49.6069 47.237 49.7948 44.6059C50.0668 40.5834 50.0668 36.5088 49.8028 32.4823ZM48.3071 44.502C48.1712 46.3933 46.3916 48.1686 44.504 48.3086C40.5488 48.5645 36.5378 48.5645 32.5867 48.3086C30.6951 48.1726 28.9155 46.3933 28.7795 44.5099C28.5235 40.5554 28.5235 36.5408 28.7795 32.5903C28.9155 30.6989 30.6951 28.9196 32.5787 28.7836C34.5582 28.6557 36.5498 28.5917 38.5413 28.5917C40.5329 28.5917 42.5204 28.6557 44.496 28.7836C46.3876 28.9196 48.1672 30.6989 48.3031 32.5823C48.5631 36.5408 48.5631 40.5514 48.3071 44.502Z" fill="white"/>
<path d="M48.307 44.502C48.171 46.3933 46.3914 48.1686 44.5038 48.3085C40.5487 48.5645 36.5377 48.5645 32.5865 48.3085C30.6949 48.1726 28.9153 46.3932 28.7794 44.5099C28.5234 40.5553 28.5234 36.5408 28.7794 32.5902C28.9153 30.6989 30.6949 28.9195 32.5785 28.7836C34.5581 28.6556 36.5496 28.5917 38.5412 28.5917C40.5328 28.5917 42.5203 28.6556 44.4958 28.7836C46.3874 28.9195 48.167 30.6989 48.303 32.5822C48.563 36.5408 48.563 40.5514 48.307 44.502Z" fill="white"/>
</svg>
